# Blender 3.4.1
# www.blender.org
mtllib Fence.mtl
o Plane
v -1.000000 0.004816 -0.000000
v 1.000000 0.004816 -0.000000
v -1.000000 2.004816 0.000000
v 1.000000 2.004816 0.000000
v -1.000000 2.004816 -0.003024
v -1.000000 0.004816 -0.003024
v 1.000000 0.004816 -0.003024
v 1.000000 2.004816 -0.003024
vn -0.0000 -0.0000 1.0000
vn -0.0000 -0.0000 -1.0000
vn -0.0000 1.0000 -0.0000
vn -0.0000 -1.0000 -0.0000
vn 1.0000 -0.0000 -0.0000
vn -1.0000 -0.0000 -0.0000
vt -2.441814 -0.005694
vt 3.395808 -0.005694
vt -2.441814 0.993257
vt 3.395808 0.993257
vt -2.441814 0.993257
vt -2.441814 -0.005694
vt 3.395808 -0.005694
vt 3.395808 0.993257
s 0
usemtl Material.001
f 1/1/1 2/2/1 4/4/1 3/3/1
f 6/6/2 5/5/2 8/8/2 7/7/2
f 4/4/3 8/8/3 5/5/3 3/3/3
f 1/1/4 6/6/4 7/7/4 2/2/4
f 2/2/5 7/7/5 8/8/5 4/4/5
f 3/3/6 5/5/6 6/6/6 1/1/6
