# Blender 3.4.1
# www.blender.org
mtllib ground01_2.mtl
o Ground01
v -9.000001 0.500000 -30.000000
v -9.000001 -0.500000 -30.000000
v 8.999999 0.500000 -30.000000
v 8.999999 -0.500000 -30.000000
v -8.999999 0.500000 30.000000
v -8.999999 -0.500000 30.000000
v 9.000001 0.500000 30.000000
v 9.000001 -0.500000 30.000000
vn -0.0000 1.0000 -0.0000
vn 1.0000 -0.0000 -0.0000
vn -0.0000 -0.0000 1.0000
vn -0.0000 -1.0000 -0.0000
vn -0.0000 -0.0000 -1.0000
vn -1.0000 -0.0000 -0.0000
vt -0.958360 5.289404
vt -0.958360 5.289404
vt 1.917933 5.289404
vt 1.917933 5.289404
vt -0.958360 -4.298242
vt -0.958360 -4.298242
vt 1.917933 -4.298242
vt 1.917933 -4.298242
s 0
usemtl Material
f 1/1/1 5/5/1 7/7/1 3/3/1
f 4/4/2 3/3/2 7/7/2 8/8/2
f 8/8/3 7/7/3 5/5/3 6/6/3
f 6/6/4 2/2/4 4/4/4 8/8/4
f 2/2/5 1/1/5 3/3/5 4/4/5
f 6/6/6 5/5/6 1/1/6 2/2/6
