# Blender 3.4.1
# www.blender.org
mtllib G01_Straight.mtl
o G01_Straight
v -14.000000 1.816456 30.000000
v -14.000000 2.493985 30.000000
v -14.000000 1.816456 -30.000000
v -14.000000 2.493985 -30.000000
v 14.000000 1.816456 30.000000
v 14.000000 2.493985 30.000000
v 14.000000 1.816456 -30.000000
v 14.000000 2.493985 -30.000000
v -10.377679 1.146426 -30.000000
v 10.377679 1.146426 -30.000000
v -6.762295 0.553745 -30.000000
v -2.415452 0.163870 -30.000000
v 2.415452 0.163870 -30.000000
v 6.762295 0.553745 -30.000000
v 10.377679 1.823956 -30.000000
v -10.377679 1.823956 -30.000000
v 6.762295 1.231275 -30.000000
v 2.415452 0.841400 -30.000000
v -2.415452 0.841400 -30.000000
v -6.762295 1.231275 -30.000000
v 10.377679 1.146426 30.000000
v -10.377679 1.146426 30.000000
v 6.762295 0.553745 30.000000
v 2.415452 0.163870 30.000000
v -2.415452 0.163870 30.000000
v -6.762295 0.553745 30.000000
v -10.377679 1.823956 30.000000
v 10.377679 1.823956 30.000000
v -6.762295 1.231275 30.000000
v -2.415452 0.841400 30.000000
v 2.415452 0.841400 30.000000
v 6.762295 1.231275 30.000000
vn -1.0000 -0.0000 -0.0000
vn -0.1819 0.9833 -0.0000
vn 1.0000 -0.0000 -0.0000
vn -0.1819 -0.9833 -0.0000
vn -0.0000 -0.0000 1.0000
vn 0.1819 0.9833 -0.0000
vn -0.0000 -0.0000 -1.0000
vn 0.1819 -0.9833 -0.0000
vn 0.1618 0.9868 -0.0000
vn 0.0893 0.9960 -0.0000
vn -0.0000 1.0000 -0.0000
vn -0.0893 0.9960 -0.0000
vn -0.1618 0.9868 -0.0000
vn 0.1618 -0.9868 -0.0000
vn 0.0893 -0.9960 -0.0000
vn -0.0000 -1.0000 -0.0000
vn -0.0893 -0.9960 -0.0000
vn -0.1618 -0.9868 -0.0000
vt -1.258567 -3.215143
vt -1.258567 -3.215143
vt -1.258567 4.189087
vt -1.258567 4.189087
vt 2.196741 -3.215143
vt 2.196741 -3.215143
vt 2.196741 4.189087
vt 2.196741 4.189087
vt -0.811558 4.189087
vt 1.749732 4.189087
vt -0.365406 4.189087
vt 0.171011 4.189087
vt 0.767163 4.189087
vt 1.303580 4.189087
vt 1.749732 4.189087
vt -0.811558 4.189087
vt 1.303580 4.189087
vt 0.767163 4.189087
vt 0.171011 4.189087
vt -0.365406 4.189087
vt 1.749732 -3.215143
vt -0.811558 -3.215143
vt 1.303580 -3.215143
vt 0.767163 -3.215143
vt 0.171011 -3.215143
vt -0.365406 -3.215143
vt -0.811558 -3.215143
vt 1.749732 -3.215143
vt -0.365406 -3.215143
vt 0.171011 -3.215143
vt 0.767163 -3.215143
vt 1.303580 -3.215143
s 0
usemtl Material
f 1/1/1 2/2/1 4/4/1 3/3/1
f 8/8/2 15/15/2 28/28/2 6/6/2
f 7/7/3 8/8/3 6/6/3 5/5/3
f 3/3/4 9/9/4 22/22/4 1/1/4
f 5/5/5 6/6/5 28/28/5 21/21/5
f 16/16/6 4/4/6 2/2/6 27/27/6
f 10/10/7 15/15/7 8/8/7 7/7/7
f 22/22/5 27/27/5 2/2/5 1/1/5
f 10/10/8 7/7/8 5/5/8 21/21/8
f 16/16/9 27/27/9 29/29/9 20/20/9
f 20/20/10 29/29/10 30/30/10 19/19/10
f 19/19/11 30/30/11 31/31/11 18/18/11
f 18/18/12 31/31/12 32/32/12 17/17/12
f 17/17/13 32/32/13 28/28/13 15/15/13
f 10/10/14 21/21/14 23/23/14 14/14/14
f 14/14/15 23/23/15 24/24/15 13/13/15
f 13/13/16 24/24/16 25/25/16 12/12/16
f 12/12/17 25/25/17 26/26/17 11/11/17
f 11/11/18 26/26/18 22/22/18 9/9/18
f 27/27/5 22/22/5 26/26/5 29/29/5
f 29/29/5 26/26/5 25/25/5 30/30/5
f 30/30/5 25/25/5 24/24/5 31/31/5
f 31/31/5 24/24/5 23/23/5 32/32/5
f 32/32/5 23/23/5 21/21/5 28/28/5
f 15/15/7 10/10/7 14/14/7 17/17/7
f 17/17/7 14/14/7 13/13/7 18/18/7
f 18/18/7 13/13/7 12/12/7 19/19/7
f 19/19/7 12/12/7 11/11/7 20/20/7
f 20/20/7 11/11/7 9/9/7 16/16/7
f 3/3/7 4/4/7 16/16/7 9/9/7
